<svg xmlns="http://www.w3.org/2000/svg" width="65.6" height="56.617" viewBox="0 0 65.6 56.617">
  <g id="Group_3" data-name="Group 3" transform="translate(-1848 144)">
    <path id="Icon_awesome-shopping-cart" data-name="Icon awesome-shopping-cart" d="M60.147,33.32l5.384-23a2.675,2.675,0,0,0-2.665-3.242H18.132L17.088,2.122A2.715,2.715,0,0,0,14.41,0H2.733A2.694,2.694,0,0,0,0,2.654V4.423A2.694,2.694,0,0,0,2.733,7.077h7.959l8,37.977a6.16,6.16,0,0,0-3.2,5.37,6.381,6.381,0,0,0,12.756,0A6.086,6.086,0,0,0,26.328,46H50.2a6.087,6.087,0,0,0-1.916,4.423,6.381,6.381,0,0,0,12.756,0,6.181,6.181,0,0,0-3.6-5.574l.628-2.684a2.675,2.675,0,0,0-2.665-3.242H24.841L24.1,35.385H57.482A2.717,2.717,0,0,0,60.147,33.32Z" transform="translate(1848 -144)" fill="#fff"/>
  </g>
</svg>
