<svg xmlns="http://www.w3.org/2000/svg" xmlns:xlink="http://www.w3.org/1999/xlink" width="51.52" height="51.51" viewBox="0 0 51.52 51.51">
  <defs>
    <filter id="Icon_awesome-facebook-square" x="0" y="0" width="51.52" height="51.51" filterUnits="userSpaceOnUse">
      <feOffset dy="3" input="SourceAlpha"/>
      <feGaussianBlur stdDeviation="3" result="blur"/>
      <feFlood flood-opacity="0.161"/>
      <feComposite operator="in" in2="blur"/>
      <feComposite in="SourceGraphic"/>
    </filter>
  </defs>
  <g transform="matrix(1, 0, 0, 1, 0, 0)" filter="url(#Icon_awesome-facebook-square)">
    <path id="Icon_awesome-facebook-square-2" data-name="Icon awesome-facebook-square" d="M28.143,2.25H3.377A3.377,3.377,0,0,0,0,5.626V30.384A3.377,3.377,0,0,0,3.377,33.76h9.657V23.047H8.6V18.005h4.432V14.162c0-4.371,2.6-6.786,6.59-6.786a26.861,26.861,0,0,1,3.906.34v4.29h-2.2a2.522,2.522,0,0,0-2.844,2.724v3.274h4.839l-.774,5.042H18.486V33.76h9.657a3.377,3.377,0,0,0,3.377-3.376V5.626A3.377,3.377,0,0,0,28.143,2.25Z" transform="translate(10 4.75)" fill="#fafafa" stroke="#f03e22" stroke-linecap="round" stroke-width="2"/>
  </g>
</svg>
