<svg xmlns="http://www.w3.org/2000/svg" width="68.15" height="68.15" viewBox="0 0 68.15 68.15">
  <path id="Icon_awesome-arrow-alt-circle-right" data-name="Icon awesome-arrow-alt-circle-right" d="M34.638.563A34.075,34.075,0,1,1,.563,34.638,34.069,34.069,0,0,1,34.638.563ZM18.7,40.683H34.638v9.742a1.65,1.65,0,0,0,2.817,1.168l15.7-15.787a1.634,1.634,0,0,0,0-2.322l-15.7-15.8a1.649,1.649,0,0,0-2.817,1.168v9.742H18.7a1.654,1.654,0,0,0-1.649,1.649v8.794A1.654,1.654,0,0,0,18.7,40.683Z" transform="translate(-0.563 -0.563)" fill="#f03e22"/>
</svg>
