<svg xmlns="http://www.w3.org/2000/svg" width="68.15" height="68.15" viewBox="0 0 68.15 68.15">
  <path id="Icon_awesome-arrow-alt-circle-left" data-name="Icon awesome-arrow-alt-circle-left" d="M34.638,68.713A34.075,34.075,0,1,1,68.713,34.638,34.069,34.069,0,0,1,34.638,68.713ZM50.576,28.592H34.638V18.85a1.65,1.65,0,0,0-2.817-1.168L16.116,33.47a1.634,1.634,0,0,0,0,2.322l15.7,15.787a1.649,1.649,0,0,0,2.817-1.168V40.683H50.576a1.654,1.654,0,0,0,1.649-1.649V30.241A1.654,1.654,0,0,0,50.576,28.592Z" transform="translate(-0.563 -0.563)" fill="#f03e22"/>
</svg>
