<svg xmlns="http://www.w3.org/2000/svg" width="140" height="107.625" viewBox="0 0 140 107.625">
  <g id="Group_2" data-name="Group 2" transform="translate(-18.5 -31)" style="mix-blend-mode: hard-light;isolation: isolate">
    <path id="Path_9" data-name="Path 9" d="M29.73,134.327c1.872,3.454,3.582,7.018,5.358,10.538l-.419.567L18.5,128.639c3.6-1.731,7.051-2.522,9.4-4.769,2.318-2.222,3.516-5.915,5.37-9.26l5.388,6.343c-2.9,3.454-5.676,6.84-8.543,10.127A2.42,2.42,0,0,0,29.73,134.327Z" transform="translate(0 -19.335)" fill="#fafafa" fill-rule="evenodd"/>
    <g id="Group_1" data-name="Group 1" transform="translate(30.925 31)">
      <path id="Path_1" data-name="Path 1" d="M204.9,144.723c1.112-2.023,2.266-4.018,3.329-6.072,3.1-5.98,3.079-5.986-1.12-10.963-1.861-2.206-3.708-4.426-5.653-6.749l5.354-6.441c1.4,2.584,2.523,5.005,3.949,7.18a11.038,11.038,0,0,0,3.414,3.448,66.589,66.589,0,0,0,7.032,3.146A79.283,79.283,0,0,1,204.9,144.723Z" transform="translate(-93.626 -50.308)" fill="#fafafa" fill-rule="evenodd"/>
      <path id="Path_2" data-name="Path 2" d="M140.245,117.982c-13.037,12.92-27.969,19.669-45.094,19.669-17.193,0-32.171-6.832-45.078-19.669L37.4,133.451a78.606,78.606,0,0,0,115.531-.015ZM65.891,139.315a2.6,2.6,0,0,1-2.318,1.771l-.011.025a1.456,1.456,0,0,1,.266.8l.06,1.648a.614.614,0,0,0,.392.558l.279.146-.68,1.627-1.315-.693a1.267,1.267,0,0,1-.849-1.255l-.1-2.6c-.013-.357-.116-.534-.529-.751l-.4-.211-.632,1.512.836.441-.68,1.626L56.489,142l.68-1.626.892.469,2.378-5.691-.892-.469.679-1.626,3.6,1.894a6.289,6.289,0,0,1,1.521,1.013A2.949,2.949,0,0,1,65.891,139.315Zm3.67,8.9a5.2,5.2,0,0,1-3.026-6.492,4.378,4.378,0,0,1,5.768-3.242,5.125,5.125,0,0,1,3.06,6.373C74.585,147.618,72.121,149.121,69.562,148.213Zm14.163,3.46-3.621-.743.289-1.766.751.153-.116-1.357L78.8,147.5l-.538,1.224.751.154-.289,1.767L75.1,149.9l.288-1.767.714.147,3.658-7.462,2.47.507L83.3,149.76l.714.147Zm9.486.747-1.45-.105a1.138,1.138,0,0,1-1.2-.821l-.937-2.38c-.129-.328-.283-.45-.737-.483l-.442-.031-.1,1.668.921.066-.1,1.793-4.1-.3.1-1.792.983.071.362-6.273-.983-.071.1-1.792,3.969.288a5.8,5.8,0,0,1,1.746.321,2.749,2.749,0,0,1,1.6,2.9,2.9,2.9,0,0,1-1.581,2.6l0,.028a1.306,1.306,0,0,1,.507.632l.592,1.511a.551.551,0,0,0,.548.358l.307.022Zm10.182-.824a3.327,3.327,0,0,1-1.273.329l-4.023.381-.06-.8,1.129-.107-.607-8.08-1.129.107-.06-.8,3.889-.368a2.875,2.875,0,0,1,1.509.19,2.293,2.293,0,0,1,1.215,2.02,2.343,2.343,0,0,1-.947,2.2l0,.028a2.317,2.317,0,0,1,1.627,2.244A2.72,2.72,0,0,1,103.393,151.6Zm3.339-.276-.118-.79,1.117-.209-1.188-8-1.117.21-.118-.791,3.085-.577.118.791-1.117.208,1.189,8,1.117-.209.118.79Zm11.189-2.694a1.014,1.014,0,0,1-1.318-.383l-2.516-2.891a.636.636,0,0,0-.762-.227l-.848.24.84,3.736,1.086-.307.174.776-3.02.854-.174-.776,1.1-.311-1.766-7.862-1.1.311-.175-.777,2.972-.84.175.776-1.038.294.746,3.323,1.23-.348,1.307-3.9-.824.233-.174-.776,2.6-.736.175.777-.848.239-1.495,4.311.007.028a1.208,1.208,0,0,1,.529.434l2.45,2.769a.6.6,0,0,0,.7.2l.418-.118.174.777Zm2.134-.727-.245-.753,1.064-.437-2.484-7.614-1.064.437-.245-.752,5.745-2.359.618,1.893-.74.3-.363-1.116-3.133,1.287,1.1,3.36,3.075-1.263.254.778-3.075,1.262,1.117,3.425,3.353-1.378-.386-1.18.729-.3.639,1.958Zm10.254-4.486c-1.121.605-2.692.763-3.2-.432l-.358-.833.743-.4.273.634c.315.735,1.307.721,2.205.236a1.928,1.928,0,0,0,1.063-2.522c-.49-1.145-1.605-1.034-2.8-.913-1.207.115-2.47.231-3.127-1.3a2.709,2.709,0,0,1,1.4-3.56c1.109-.6,2.461-.73,2.84.154l.4.934-.744.4-.277-.647c-.24-.56-1.178-.422-1.877-.045a1.744,1.744,0,0,0-.967,2.27c.454,1.058,1.441.939,2.561.84,1.335-.138,2.663-.258,3.352,1.348A2.939,2.939,0,0,1,130.308,143.412Z" transform="translate(-37.404 -51.114)" fill="#fafafa" fill-rule="evenodd"/>
      <path id="Path_3" data-name="Path 3" d="M134.581,159.9l-2.061.2-.288-3.827,2.2-.208a1.682,1.682,0,0,1,1.849,1.751,1.893,1.893,0,0,1-.812,1.852A2.3,2.3,0,0,1,134.581,159.9Z" transform="translate(-69.903 -59.917)" fill="#fafafa" fill-rule="evenodd"/>
      <path id="Path_4" data-name="Path 4" d="M134.1,153.988l-2.1.2-.254-3.373,1.9-.18a1.815,1.815,0,0,1,1.05.151,1.675,1.675,0,0,1,.733,1.372A1.541,1.541,0,0,1,134.1,153.988Z" transform="translate(-69.739 -58.661)" fill="#fafafa" fill-rule="evenodd"/>
      <path id="Path_5" data-name="Path 5" d="M116.223,154.607l-1-.072.147-2.538.786.058a1.787,1.787,0,0,1,.839.227,1.155,1.155,0,0,1,.417,1.124C117.364,154.3,116.912,154.656,116.223,154.607Z" transform="translate(-64.076 -58.98)" fill="#fafafa" fill-rule="evenodd"/>
      <path id="Path_6" data-name="Path 6" d="M102.294,151.6a6.316,6.316,0,0,0,.336-.985l.048.011a6.443,6.443,0,0,0,0,1.053l.155,1.885-1.3-.266Z" transform="translate(-59.385 -58.659)" fill="#fafafa" fill-rule="evenodd"/>
      <path id="Path_7" data-name="Path 7" d="M86.381,152.915a2.933,2.933,0,0,1-1.43-3.68c.446-1.581,1.789-2.408,3.022-1.97a2.847,2.847,0,0,1,1.463,3.561C88.973,152.473,87.614,153.352,86.381,152.915Z" transform="translate(-53.648 -57.859)" fill="#fafafa" fill-rule="evenodd"/>
      <path id="Path_8" data-name="Path 8" d="M74.844,144.619l-.9-.475.962-2.3.713.375a1.967,1.967,0,0,1,.707.554,1.2,1.2,0,0,1,.022,1.216C76.006,144.8,75.47,144.947,74.844,144.619Z" transform="translate(-49.926 -56.632)" fill="#fafafa" fill-rule="evenodd"/>
      <path id="Path_10" data-name="Path 10" d="M40.9,144.477l8.031,6.744-2.166,3.841c-2.152-3.585-4.16-6.93-6.167-10.276Z" transform="translate(-38.498 -57.241)" fill="#fafafa" fill-rule="evenodd"/>
      <path id="Path_11" data-name="Path 11" d="M205.349,145.183l-5.846,9.964-2.287-3.785,7.749-6.465Z" transform="translate(-92.174 -57.338)" fill="#fafafa" fill-rule="evenodd"/>
      <path id="Path_12" data-name="Path 12" d="M137.825,69.931a6.3,6.3,0,0,0,1.718-.763c.068,1.2.283,4.63-1.761,6.4a6.828,6.828,0,0,0-.794-.521l.837-5.115ZM103.911,54.716a15.022,15.022,0,0,1,4.142-3.589c-14.246,22.5,13.7,36.889,7.814,56.2A15.385,15.385,0,0,0,123.121,94.6c.388-13.258-17.046-16.727-7.68-36.232-3.562,13.1-.333,17.648,7.7,24.562-1.432-4.046.615-9.957,4.855-13.039l-6.418-3.143,8.841,2.585c-4.023,2.378-7.837,10.331-4.564,14.584,2.162,2.81,6.472.989,8.311,6.414,2.561-1.8,2.728-3.934,2.889-6.8a7.43,7.43,0,0,1,.592,3.91c2.671-3,2.387-9.3-1.4-11.274a19.863,19.863,0,0,0-4.209,2.089c-2.177,1.343-1.208,2.84-3.961,2.638,0,0-1.019-1.156,2.687-3.461a32.363,32.363,0,0,1,5.025-2.575l.882-4.983a8.837,8.837,0,0,0-1.574-1.956c-.779-.735-2.006-1.572-2.874-2.334-.327-.287-.766-.374-.873-.718.676-1.644,4.186-1.091,5.588-.937a7.438,7.438,0,0,1,2.358-.247c-2.68-2.946-9.6-8.831-12.835-11.724a23.924,23.924,0,0,0-2.415-5.3,10.9,10.9,0,0,1,3.261,4.661l1.821,1.394c1.147-7.535-1.247-20.146-13.009-19.009a12.213,12.213,0,0,1,3.162,6.815c-12.533-20.582-38.632-4.08-37.348,14.415.9-1.758,6.155-7.867,10.779-8.553C82.558,53.524,72.787,70.4,82.895,84.272,79.9,72.514,85.97,59.8,93.363,55.1c-21.592,27.513.045,40.859,8.1,56.454C109.393,93.73,80.348,90.807,91.372,64.3c-3.835,17.245,4.092,25.468,11.475,31.185-6.8-12.046-6.039-25.932-.138-38.406C98.045,61.8,93.967,68.719,94.7,79.952a25.593,25.593,0,0,1,6.558-24.517c-4.051-5.57-3.326-14.756,2.9-16.418,3.231-.862,7.069,1.39,8.523,5.461-6.179-9.985-18.039.108-8.769,10.238Zm-15.06-11.03c5.7-10.132,19.223-12.7,26.17-3.808-8.848-6.8-19.34-3.5-26.17,3.808Zm23.3,35.928c-6.6-11.83-7.047-23.311,3.346-31.709-9.174,11.233-6.984,21.219-3.346,31.709ZM102.114,66.269c1.053,17.2,18.734,29.33,10.411,47.757-1.874-14.353-17.15-24.853-10.411-47.757Zm8.977-20.889c-1.674,1.812-3.8.113-7.725,3.024-.894-6.856,6.053-6.578,7.725-3.024Zm12.479,9.563c.96.434,5.916,7.267,6.631,8.783-2.282-2.292-4.224-4.28-6.751-6.561L121.465,58.2l.4-1.387-4.13-1.37,3.432-1.428c1.622-.675,1.113-1.524.314-2.571a2.638,2.638,0,0,1,2.091,3.5Zm-.6,54.31a13.915,13.915,0,0,0-.072-7.339c2.026-4.29,2.985-10.781,1.174-15.308C131.676,93.063,133.477,105.172,122.969,109.252Z" transform="translate(-51.536 -31)" fill="#fafafa"/>
    </g>
  </g>
</svg>
